<svg xmlns="http://www.w3.org/2000/svg" width="48" height="48" viewBox="0 0 48 48" version="1.1"><path d="M 25 24 L 25 42 33.500 42 L 42 42 42 24 L 42 6 33.500 6 L 25 6 25 24 M 9 10 C 9 10.550, 9.450 11, 10 11 C 10.550 11, 11 10.550, 11 10 C 11 9.450, 10.550 9, 10 9 C 9.450 9, 9 9.450, 9 10 M 13 10 C 13 10.550, 15.025 11, 17.500 11 C 19.975 11, 22 10.550, 22 10 C 22 9.450, 19.975 9, 17.500 9 C 15.025 9, 13 9.450, 13 10 M 28 16 C 28 20.469, 28.834 20.946, 31.500 18 C 33.247 16.070, 33.247 15.930, 31.500 14 C 28.834 11.054, 28 11.531, 28 16 M 9 14 C 9 14.550, 9.450 15, 10 15 C 10.550 15, 11 14.550, 11 14 C 11 13.450, 10.550 13, 10 13 C 9.450 13, 9 13.450, 9 14 M 13 14 C 13 14.550, 15.025 15, 17.500 15 C 19.975 15, 22 14.550, 22 14 C 22 13.450, 19.975 13, 17.500 13 C 15.025 13, 13 13.450, 13 14 M 9 18 C 9 18.550, 9.450 19, 10 19 C 10.550 19, 11 18.550, 11 18 C 11 17.450, 10.550 17, 10 17 C 9.450 17, 9 17.450, 9 18 M 13 18 C 13 18.550, 15.025 19, 17.500 19 C 19.975 19, 22 18.550, 22 18 C 22 17.450, 19.975 17, 17.500 17 C 15.025 17, 13 17.450, 13 18 M 9 22 C 9 22.550, 9.450 23, 10 23 C 10.550 23, 11 22.550, 11 22 C 11 21.450, 10.550 21, 10 21 C 9.450 21, 9 21.450, 9 22 M 13 22 C 13 22.550, 15.025 23, 17.500 23 C 19.975 23, 22 22.550, 22 22 C 22 21.450, 19.975 21, 17.500 21 C 15.025 21, 13 21.450, 13 22" stroke="none" fill="#185cb2" fill-rule="evenodd"/><path d="M 6 24 L 6 42 15.500 42 L 25 42 25 24 L 25 6 15.500 6 L 6 6 6 24 M 9 10 C 9 10.550, 9.450 11, 10 11 C 10.550 11, 11 10.550, 11 10 C 11 9.450, 10.550 9, 10 9 C 9.450 9, 9 9.450, 9 10 M 13 10 C 13 10.550, 15.025 11, 17.500 11 C 19.975 11, 22 10.550, 22 10 C 22 9.450, 19.975 9, 17.500 9 C 15.025 9, 13 9.450, 13 10 M 28 16 C 28 20.469, 28.834 20.946, 31.500 18 C 33.247 16.070, 33.247 15.930, 31.500 14 C 28.834 11.054, 28 11.531, 28 16 M 9 14 C 9 14.550, 9.450 15, 10 15 C 10.550 15, 11 14.550, 11 14 C 11 13.450, 10.550 13, 10 13 C 9.450 13, 9 13.450, 9 14 M 13 14 C 13 14.550, 15.025 15, 17.500 15 C 19.975 15, 22 14.550, 22 14 C 22 13.450, 19.975 13, 17.500 13 C 15.025 13, 13 13.450, 13 14 M 9 18 C 9 18.550, 9.450 19, 10 19 C 10.550 19, 11 18.550, 11 18 C 11 17.450, 10.550 17, 10 17 C 9.450 17, 9 17.450, 9 18 M 13 18 C 13 18.550, 15.025 19, 17.500 19 C 19.975 19, 22 18.550, 22 18 C 22 17.450, 19.975 17, 17.500 17 C 15.025 17, 13 17.450, 13 18 M 9 22 C 9 22.550, 9.450 23, 10 23 C 10.550 23, 11 22.550, 11 22 C 11 21.450, 10.550 21, 10 21 C 9.450 21, 9 21.450, 9 22 M 13 22 C 13 22.550, 15.025 23, 17.500 23 C 19.975 23, 22 22.550, 22 22 C 22 21.450, 19.975 21, 17.500 21 C 15.025 21, 13 21.450, 13 22" stroke="none" fill="#54e4fc" fill-rule="evenodd"/></svg>